<?xml version="1.0" encoding="UTF-8" standalone="no"?>
<!-- Created with Inkscape (http://www.inkscape.org/) -->

<svg
   xmlns:dc="http://purl.org/dc/elements/1.1/"
   xmlns:cc="http://creativecommons.org/ns#"
   xmlns:rdf="http://www.w3.org/1999/02/22-rdf-syntax-ns#"
   xmlns:svg="http://www.w3.org/2000/svg"
   xmlns="http://www.w3.org/2000/svg"
   xmlns:sodipodi="http://sodipodi.sourceforge.net/DTD/sodipodi-0.dtd"
   xmlns:inkscape="http://www.inkscape.org/namespaces/inkscape"
   width="1000"
   height="1000"
   id="svg2"
   version="1.1"
   inkscape:version="0.91 r13725"
   sodipodi:docname="Ruby_Rose_Emblem2.svg">
  <defs
     id="defs4" />
  <sodipodi:namedview
     id="base"
     pagecolor="#ffffff"
     bordercolor="#666666"
     borderopacity="1.0"
     inkscape:pageopacity="0.0"
     inkscape:pageshadow="2"
     inkscape:zoom="1.4"
     inkscape:cx="401.74299"
     inkscape:cy="463.96341"
     inkscape:document-units="px"
     inkscape:current-layer="g3823"
     showgrid="false"
     inkscape:window-width="1920"
     inkscape:window-height="1027"
     inkscape:window-x="-8"
     inkscape:window-y="-8"
     inkscape:window-maximized="1" />
  <metadata
     id="metadata7">
    <rdf:RDF>
      <cc:Work
         rdf:about="">
        <dc:format>image/svg+xml</dc:format>
        <dc:type
           rdf:resource="http://purl.org/dc/dcmitype/StillImage" />
        <dc:title></dc:title>
      </cc:Work>
    </rdf:RDF>
  </metadata>
  <g
     inkscape:label="Layer 1"
     inkscape:groupmode="layer"
     id="layer1"
     transform="translate(0,-52.362183)">
    <g
       id="g3823"
       transform="matrix(1.0639253,0,0,1.0639253,-30.637414,-36.024993)">
      <path
         sodipodi:nodetypes="ccccccccc"
         transform="translate(0,52.362183)"
         inkscape:connector-curvature="0"
         id="path3799"
         d="m 435.44643,828.92857 c -65.21606,8.28543 -53.66841,38.4847 -41.16072,105.71429 9.98235,37.2546 64.83303,40.29613 93.92858,32.5 25.63735,-6.86951 109.45245,-50.16394 127.14285,-63.92857 40.59548,-30.4621 42.5,-95.76442 40.98477,-102.70921 -34.03013,19.6473 -30.28903,35.38353 -70.3317,43.54485 -20.68906,4.23441 -40.63146,10.33546 -59.72073,18.56932 -43.09537,12.82919 -39.39147,-3.9672 -81.99891,-6.62331 -29.67463,-1.90928 -27.83143,-11.63217 -8.84414,-27.06737 z"
         style="fill:#a52228;fill-opacity:1;stroke:none" />
      <path
         sodipodi:nodetypes="ccscccccccccccccccc"
         transform="translate(0,52.362183)"
         inkscape:connector-curvature="0"
         id="path3801"
         d="m 623.92857,916.42857 c 29.57183,-11.0214 58.52127,-25.77713 87.14286,-42.5 10.97985,-6.33922 9.85622,-19.21159 25.12085,-28.02463 7.62252,-4.40086 15.08315,-6.82223 26.30772,-18.0468 19.80382,-22.92903 44.85216,-46.50249 69.64286,-68.57143 48.46246,-48.46246 68.9346,-142.6417 29.64286,-233.57143 -1.60319,-5.9832 0.14023,-80.69886 -9.97459,-98.21824 -2.28416,-3.95628 -1.04966,-12.00175 1.38896,-16.22557 19.92922,-23.37786 18.88817,-40.11241 -4.41941,-55.24272 33.39347,43.74984 -11.61676,33.88217 -11.61676,50.00255 0.86314,20.96594 4.52062,41.69386 -7.82868,54.04316 -22.93218,20.0923 -23.23351,25.39569 -23.23351,50.98733 0,13.63614 -22.47589,11.40388 -22.47589,47.25001 0,6.37748 15.12061,-11.06874 24.76702,2.9392 2.88623,15.94442 -10.64004,15.72 3.21428,30.35714 9.25697,9.25697 -9.24596,25.50829 -6.60714,39.10714 6.22007,52.7652 -34.54065,89.2585 -65.35714,128.92858 -25.68497,25.68497 -46.68516,12.65791 -62.45802,71.52303 -16.6423,62.10992 -31.01575,66.89034 -53.25627,85.26268 z"
         style="fill:#a52228;fill-opacity:1;stroke:none" />
      <path
         sodipodi:nodetypes="cczccscccczc"
         transform="translate(0,52.362183)"
         inkscape:connector-curvature="0"
         id="path3805"
         d="m 773.92857,567.14286 c 21.96643,35.41709 1.94215,80.73729 -4.64285,92.14285 -40.9446,59.24881 -31.22883,76.15838 -83.12636,111.87853 -51.89752,35.72015 -89.98172,64.94752 -209.6199,66.70628 2.83236,-5.30267 4.73963,-11.28373 5.05077,-18.43529 -37.99556,-8.00868 -58.58052,-25.54024 -55.92395,-34.08009 1.71615,-5.51677 16.40793,-2.74112 55.41887,-1.52778 32.48929,0 115.21128,-55.63449 127.84343,-96.86307 3.50103,-13.06601 -3.1863,-22.10571 31.60714,-31.42858 -1.55077,-16.33155 11.67819,-9.02193 24.10714,-16.16071 -6.15647,-40.65773 23.3545,-15.09124 60.35714,-24.28571 37.00264,-9.19447 36.48987,-27.60171 48.92857,-47.94643 z"
         style="fill:#a52228;fill-opacity:1;stroke:none" />
      <path
         sodipodi:nodetypes="ccccccccczc"
         transform="translate(0,52.362183)"
         inkscape:connector-curvature="0"
         id="path3809"
         d="M 450,639.28571 C 680.85672,658.99584 678.25819,410.79625 575.71429,470 c 1.56157,20.3346 -4.90203,24.66072 -46.42857,27.85714 7.35635,-7.64285 15.92072,-14.43335 19.98473,-24.39915 2.9397,-8.05932 2.45563,-38.42568 0,-42.67895 -25.92844,-38.39854 64.30378,-25.85804 28.53681,-60.86169 159.93288,-10.78254 180.33684,170.68791 40.76417,279.36836 -10.9849,7.78614 -27.60949,7.83348 -42.02686,2.96928 -0.61813,13.00717 -16.65436,13.15756 -36.61803,12.6269 0,0 -18.28386,12.59328 -39.39595,7.32361 C 479.4185,666.93583 463.34005,653.41211 450,639.28571 z"
         style="fill:#a52228;fill-opacity:1;stroke:none" />
      <path
         sodipodi:nodetypes="ccscccc"
         transform="translate(0,52.362183)"
         inkscape:connector-curvature="0"
         id="path3815"
         d="M 601.04077,476.48844 C 593.09311,503.90821 528.52716,519.26672 493.9646,515.62875 C 470.13103,512.27191 441.86707,501.65427 456.08122,467.68679 C 460.122,458.03057 471.8133,441.05334 468.20571,438.60772 C 441.6304,425.62546 375.77129,458.76422 392.81872,503.05051 C 395.03003,511.30324 432.26258,546.19815 447.47883,554.92743 C 486.72905,577.12808 633.78698,560.06956 601.04077,476.48844 Z"
         style="fill:#a52228;fill-opacity:1;stroke:none" />
      <path
         sodipodi:nodetypes="cccccccccccc"
         transform="translate(0,52.362183)"
         inkscape:connector-curvature="0"
         id="path3817"
         d="m 473.88781,464.11408 c 3.98992,7.58044 6.81961,15.741 7.44988,25.00127 0.8403,7.73089 8.16379,8.08122 18.68782,8.08122 22.34275,-1.31292 21.79122,-21.50682 29.7995,-28.91562 3.1057,-3.1057 -0.2021,-14.47476 0.75762,-18.05647 1.36992,-5.11262 7.33769,-8.49665 5.6821,-11.36422 -7.80419,-10.1085 -19.17916,-36.24873 18.56156,-50.88643 C 517.48078,314.7697 366.8158,345.05121 400,363.39286 c -15.68765,0.83959 -30.14173,-0.78796 -43.92857,-3.75 24.31306,41.3583 15.084,58.95853 51.42857,63.21428 13.11653,1.56881 42.97111,-13.56851 64.82143,10.53572 9.82631,9.82631 35.34472,40.50486 1.56638,30.72122 z"
         style="fill:#a52228;fill-opacity:1;stroke:none" />
      <path
         sodipodi:nodetypes="cccccccccccccccscsc"
         transform="translate(0,52.362183)"
         inkscape:connector-curvature="0"
         id="path3819"
         d="m 728.06745,594.42375 c -4.13695,-25.57317 -4.34038,-57.16304 1.51523,-88.89342 4.49109,-33.4053 5.89259,-86.91558 -57.5787,-156.06857 -12.93985,-12.93985 -24.11323,6.16483 -38.63833,2.27284 -15.59149,-3.39056 -19.93471,-11.61675 -35.60788,-11.61675 -7.67419,-0.13662 12.79702,-40.31417 26.26397,-63.63961 6.0942,-11.98292 5.40993,-40.56286 -6.566,-47.47717 -16.60832,-10.95497 -13.29569,-20.79696 -2.27284,-31.81981 9.56536,-9.56536 15.83415,-34.85373 -10.85914,-67.93276 28.56007,22.86513 74.00505,26.31445 33.84011,60.35662 -4.23124,4.54196 -13.90159,14.97301 3.03046,24.74874 24.89334,11.97872 41.03035,11.79048 41.16372,38.63833 0,50.72428 131.1043,75.50545 100.32052,22.18638 -32.25195,-49.53108 25.19768,-41.00825 24.10715,-64.64286 34.7025,18.18553 -16.24584,25.13676 -14.46429,38.57143 3.1706,19.28037 50.04391,25.65486 49.28571,48.75 -1.73065,52.71684 -38.27082,15.59093 -25.90896,127.87114 2.66545,25.58493 -14.6269,44.01405 -31.56727,63.13453 -25.46406,28.7411 -8.93656,57.64498 -56.06346,105.56094 z"
         style="fill:#a52228;fill-opacity:1;stroke:none" />
      <path
         sodipodi:nodetypes="cccccsscscssssscsccccccc"
         transform="translate(0,52.362183)"
         inkscape:connector-curvature="0"
         id="path3821"
         d="m 327.7945,252.23458 c 10.0536,-0.53221 43.57752,-19.84978 39.64849,-19.95052 l 0,-11.36421 c 0,-12.11992 -47.21253,-24.11945 21.66415,-61.45557 -25.64146,17.59387 -6.91461,46.60715 11.07143,46.60715 l 14.64286,0 c 8.12513,0 104.88961,-22.77154 52.14286,-53.75 -54.95871,-32.27756 11.09052,-43.60365 28.57143,-65.357146 0,12.821342 -35.0819,35.016376 -13.75,55.178576 19.10746,18.05973 26.25,16.15525 26.25,43.03571 0,17.48329 0.51019,22.2948 7.39176,22.2948 12.94494,0 5.58423,-19.68526 11.80466,-28.5448 5.9797,-8.51666 14.95249,-13.62966 23.48215,-19.10714 22.72223,-14.59151 13.9962,-32.71405 1.78571,-46.25 -29.05744,-32.211641 5.02964,-35.600439 18.21429,-48.392861 13.18321,-12.791019 -0.55561,-28.754519 -16.07143,-34.464285 17.37247,0.141151 66.91885,8.631442 26.07143,37.5 -17.12621,12.103801 18.03571,75.558106 18.03571,96.249996 2.09101,25.54989 -21.60714,28.3882 -21.60714,46.07143 0,39.3907 51.03702,21.14064 15.71428,82.32143 -29.18937,45.75421 -14.33744,47.02724 -36.96428,57.5 -23.34863,6.25625 -29.75109,-45.13475 -58.57143,-52.85714 -31.33912,-8.39729 -70.7588,34.82143 -97.85714,34.82143 -18.02515,0 0.021,-63.76847 -71.66979,-80.08685 z"
         style="fill:#a52228;fill-opacity:1;stroke:none" />
    </g>
  </g>
</svg>
